# xmcd
#
# Track frame offsets:
#	150
#	3446
#	18467
#	33782
#	50336
#	64946
#	81420
#	93038
#	108507
#	123070
#	134269
#	147770
#
# Disc length: 2137 seconds
#
# Revision: 1
# Processed by: cddbd v1.5.1PL0 Copyright (c) Steve Scherf et al.
# Submitted via: EasyCDDAExtractor 7.0.6.1
#
DISCID=9208570c
DTITLE=Morphine - Cure for Pain
DYEAR=1900
DGENRE=
TTITLE0=Dawna
TTITLE1=Buena
TTITLE2=I'm Free Now
TTITLE3=All Wrong
TTITLE4=Candy
TTITLE5=A Head With Wings
TTITLE6=In Spite Of Me
TTITLE7=Thursday
TTITLE8=Cure For Pain
TTITLE9=Mary Won't You Call My Name?
TTITLE10=Let's Take A Trip Together
TTITLE11=Sheila
EXTD=
EXTT0=
EXTT1=
EXTT2=
EXTT3=
EXTT4=
EXTT5=
EXTT6=
EXTT7=
EXTT8=
EXTT9=
EXTT10=
EXTT11=
PLAYORDER=
